<svg width="98" height="26" viewBox="0 0 98 26" fill="none" xmlns="http://www.w3.org/2000/svg">
<path d="M41.7559 8.03418L37.502 21H34.0752L39.8867 5.35938H42.0674L41.7559 8.03418ZM45.29 21L41.0254 8.03418L40.6816 5.35938H42.8838L48.7275 21H45.29ZM45.0967 15.1777V17.7021H36.8359V15.1777H45.0967ZM52.6699 11.8584V21H49.5762V9.37695H52.4766L52.6699 11.8584ZM52.2188 14.7803H51.3809C51.3809 13.9209 51.4919 13.1475 51.7139 12.46C51.9359 11.7653 52.2474 11.1745 52.6484 10.6875C53.0495 10.1934 53.5257 9.81738 54.0771 9.55957C54.6357 9.2946 55.2588 9.16211 55.9463 9.16211C56.4906 9.16211 56.9883 9.24089 57.4395 9.39844C57.8906 9.55599 58.2773 9.80664 58.5996 10.1504C58.929 10.4941 59.1797 10.9489 59.3516 11.5146C59.5306 12.0804 59.6201 12.7715 59.6201 13.5879V21H56.5049V13.5771C56.5049 13.0615 56.4333 12.6605 56.29 12.374C56.1468 12.0876 55.9355 11.887 55.6562 11.7725C55.3841 11.6507 55.0475 11.5898 54.6465 11.5898C54.2311 11.5898 53.8695 11.6722 53.5615 11.8369C53.2607 12.0016 53.0101 12.2308 52.8096 12.5244C52.6162 12.8109 52.4694 13.1475 52.3691 13.5342C52.2689 13.9209 52.2188 14.3363 52.2188 14.7803ZM65.2383 9.37695V21H62.1338V9.37695H65.2383ZM61.9404 6.34766C61.9404 5.89648 62.098 5.52409 62.4131 5.23047C62.7282 4.93685 63.1507 4.79004 63.6807 4.79004C64.2035 4.79004 64.6224 4.93685 64.9375 5.23047C65.2598 5.52409 65.4209 5.89648 65.4209 6.34766C65.4209 6.79883 65.2598 7.17122 64.9375 7.46484C64.6224 7.75846 64.2035 7.90527 63.6807 7.90527C63.1507 7.90527 62.7282 7.75846 62.4131 7.46484C62.098 7.17122 61.9404 6.79883 61.9404 6.34766ZM70.8887 11.7832V21H67.7842V9.37695H70.6953L70.8887 11.7832ZM70.459 14.7803H69.5996C69.5996 13.971 69.6963 13.2262 69.8896 12.5459C70.0902 11.8584 70.3802 11.264 70.7598 10.7627C71.1465 10.2542 71.6227 9.86035 72.1885 9.58105C72.7542 9.30176 73.4095 9.16211 74.1543 9.16211C74.6699 9.16211 75.1426 9.24089 75.5723 9.39844C76.002 9.54883 76.3708 9.78874 76.6787 10.1182C76.9938 10.4404 77.2373 10.863 77.4092 11.3857C77.5811 11.9014 77.667 12.5208 77.667 13.2441V21H74.5732V13.5879C74.5732 13.0579 74.5016 12.6497 74.3584 12.3633C74.2152 12.0768 74.0111 11.8763 73.7461 11.7617C73.4883 11.6471 73.1768 11.5898 72.8115 11.5898C72.4105 11.5898 72.0596 11.6722 71.7588 11.8369C71.4652 12.0016 71.2217 12.2308 71.0283 12.5244C70.835 12.8109 70.6917 13.1475 70.5986 13.5342C70.5055 13.9209 70.459 14.3363 70.459 14.7803ZM77.377 14.4258L76.2705 14.5654C76.2705 13.8063 76.3636 13.1009 76.5498 12.4492C76.7432 11.7975 77.026 11.2246 77.3984 10.7305C77.778 10.2363 78.2471 9.85319 78.8057 9.58105C79.3643 9.30176 80.0088 9.16211 80.7393 9.16211C81.2979 9.16211 81.8063 9.24447 82.2646 9.40918C82.723 9.56673 83.1133 9.82096 83.4355 10.1719C83.765 10.5156 84.0156 10.9668 84.1875 11.5254C84.3665 12.084 84.4561 12.7679 84.4561 13.5771V21H81.3516V13.5771C81.3516 13.04 81.2799 12.6318 81.1367 12.3525C81.0007 12.0661 80.8001 11.8691 80.5352 11.7617C80.2773 11.6471 79.9694 11.5898 79.6113 11.5898C79.2389 11.5898 78.9131 11.665 78.6338 11.8154C78.3545 11.9587 78.1217 12.1592 77.9355 12.417C77.7493 12.6748 77.6097 12.9756 77.5166 13.3193C77.4235 13.6559 77.377 14.0247 77.377 14.4258ZM93.7266 18.2178V9.37695H96.8203V21H93.9092L93.7266 18.2178ZM94.0703 15.833L94.9834 15.8115C94.9834 16.585 94.8939 17.3047 94.7148 17.9707C94.5358 18.6296 94.2673 19.2025 93.9092 19.6895C93.5511 20.1693 93.0999 20.5452 92.5557 20.8174C92.0114 21.0824 91.3704 21.2148 90.6328 21.2148C90.0671 21.2148 89.5443 21.1361 89.0645 20.9785C88.5918 20.8138 88.1836 20.5596 87.8398 20.2158C87.5033 19.8649 87.2383 19.4173 87.0449 18.873C86.8587 18.3216 86.7656 17.6592 86.7656 16.8857V9.37695H89.8594V16.9072C89.8594 17.251 89.8988 17.541 89.9775 17.7773C90.0635 18.0137 90.1816 18.207 90.332 18.3574C90.4824 18.5078 90.6579 18.6152 90.8584 18.6797C91.0661 18.7441 91.2952 18.7764 91.5459 18.7764C92.1833 18.7764 92.6846 18.6475 93.0498 18.3896C93.4222 18.1318 93.6836 17.7809 93.834 17.3369C93.9915 16.8857 94.0703 16.3844 94.0703 15.833Z" fill="white"/>
<path d="M22.75 13H3.25M22.75 6.5H3.25M22.75 19.5H3.25" stroke="white" stroke-width="3" stroke-linecap="round" stroke-linejoin="round"/>
</svg>
